{
  "name": "Widerstehe doch der Sünde, BWV 54 (Transcr. by Víkingur Ólafsson)",
  "header": {
    "format": 0,
    "ntracks": 1,
    "division": 480
  },
  "tracks": [
    {
      "index": 0,
      "name": "Spotify 20s Capture",
      "noteCount": 39,
      "notes": [
        {
          "note": 74,
          "channel": 0,
          "velocity": 95,
          "startTick": 0,
          "endTick": 312,
          "durationTicks": 312,
          "startSec": 0,
          "endSec": 0.3251282051282051,
          "durationSec": 0.3251282051282051,
          "trackIdx": 0,
          "trackName": "Spotify 20s Capture",
          "bpm": 120
        },
        {
          "note": 83,
          "channel": 0,
          "velocity": 81,
          "startTick": 492,
          "endTick": 804,
          "durationTicks": 312,
          "startSec": 0.5128205128205128,
          "endSec": 0.837948717948718,
          "durationSec": 0.3251282051282051,
          "trackIdx": 0,
          "trackName": "Spotify 20s Capture",
          "bpm": 120
        },
        {
          "note": 67,
          "channel": 0,
          "velocity": 81,
          "startTick": 985,
          "endTick": 1297,
          "durationTicks": 312,
          "startSec": 1.0256410256410255,
          "endSec": 1.3507692307692307,
          "durationSec": 0.3251282051282051,
          "trackIdx": 0,
          "trackName": "Spotify 20s Capture",
          "bpm": 120
        },
        {
          "note": 71,
          "channel": 0,
          "velocity": 81,
          "startTick": 1477,
          "endTick": 1789,
          "durationTicks": 312,
          "startSec": 1.5384615384615383,
          "endSec": 1.8635897435897435,
          "durationSec": 0.3251282051282051,
          "trackIdx": 0,
          "trackName": "Spotify 20s Capture",
          "bpm": 120
        },
        {
          "note": 77,
          "channel": 0,
          "velocity": 81,
          "startTick": 1969,
          "endTick": 2281,
          "durationTicks": 312,
          "startSec": 2.051282051282051,
          "endSec": 2.376410256410256,
          "durationSec": 0.3251282051282051,
          "trackIdx": 0,
          "trackName": "Spotify 20s Capture",
          "bpm": 120
        },
        {
          "note": 79,
          "channel": 0,
          "velocity": 95,
          "startTick": 2462,
          "endTick": 2774,
          "durationTicks": 312,
          "startSec": 2.564102564102564,
          "endSec": 2.889230769230769,
          "durationSec": 0.3251282051282051,
          "trackIdx": 0,
          "trackName": "Spotify 20s Capture",
          "bpm": 120
        },
        {
          "note": 56,
          "channel": 0,
          "velocity": 81,
          "startTick": 2954,
          "endTick": 3266,
          "durationTicks": 312,
          "startSec": 3.0769230769230766,
          "endSec": 3.4020512820512816,
          "durationSec": 0.3251282051282051,
          "trackIdx": 0,
          "trackName": "Spotify 20s Capture",
          "bpm": 120
        },
        {
          "note": 79,
          "channel": 0,
          "velocity": 81,
          "startTick": 3446,
          "endTick": 3758,
          "durationTicks": 312,
          "startSec": 3.5897435897435894,
          "endSec": 3.9148717948717944,
          "durationSec": 0.3251282051282051,
          "trackIdx": 0,
          "trackName": "Spotify 20s Capture",
          "bpm": 120
        },
        {
          "note": 75,
          "channel": 0,
          "velocity": 81,
          "startTick": 3938,
          "endTick": 4251,
          "durationTicks": 313,
          "startSec": 4.102564102564102,
          "endSec": 4.427692307692308,
          "durationSec": 0.3251282051282051,
          "trackIdx": 0,
          "trackName": "Spotify 20s Capture",
          "bpm": 120
        },
        {
          "note": 73,
          "channel": 0,
          "velocity": 81,
          "startTick": 4431,
          "endTick": 4743,
          "durationTicks": 312,
          "startSec": 4.615384615384615,
          "endSec": 4.94051282051282,
          "durationSec": 0.3251282051282051,
          "trackIdx": 0,
          "trackName": "Spotify 20s Capture",
          "bpm": 120
        },
        {
          "note": 78,
          "channel": 0,
          "velocity": 95,
          "startTick": 4923,
          "endTick": 5235,
          "durationTicks": 312,
          "startSec": 5.128205128205128,
          "endSec": 5.453333333333333,
          "durationSec": 0.3251282051282051,
          "trackIdx": 0,
          "trackName": "Spotify 20s Capture",
          "bpm": 120
        },
        {
          "note": 76,
          "channel": 0,
          "velocity": 81,
          "startTick": 5415,
          "endTick": 5728,
          "durationTicks": 313,
          "startSec": 5.6410256410256405,
          "endSec": 5.966153846153846,
          "durationSec": 0.3251282051282051,
          "trackIdx": 0,
          "trackName": "Spotify 20s Capture",
          "bpm": 120
        },
        {
          "note": 61,
          "channel": 0,
          "velocity": 81,
          "startTick": 5908,
          "endTick": 6220,
          "durationTicks": 312,
          "startSec": 6.153846153846153,
          "endSec": 6.478974358974359,
          "durationSec": 0.3251282051282051,
          "trackIdx": 0,
          "trackName": "Spotify 20s Capture",
          "bpm": 120
        },
        {
          "note": 78,
          "channel": 0,
          "velocity": 81,
          "startTick": 6400,
          "endTick": 6712,
          "durationTicks": 312,
          "startSec": 6.666666666666666,
          "endSec": 6.9917948717948715,
          "durationSec": 0.3251282051282051,
          "trackIdx": 0,
          "trackName": "Spotify 20s Capture",
          "bpm": 120
        },
        {
          "note": 74,
          "channel": 0,
          "velocity": 81,
          "startTick": 6892,
          "endTick": 7204,
          "durationTicks": 312,
          "startSec": 7.179487179487179,
          "endSec": 7.504615384615384,
          "durationSec": 0.3251282051282051,
          "trackIdx": 0,
          "trackName": "Spotify 20s Capture",
          "bpm": 120
        },
        {
          "note": 63,
          "channel": 0,
          "velocity": 95,
          "startTick": 7385,
          "endTick": 7697,
          "durationTicks": 312,
          "startSec": 7.692307692307692,
          "endSec": 8.017435897435897,
          "durationSec": 0.3251282051282051,
          "trackIdx": 0,
          "trackName": "Spotify 20s Capture",
          "bpm": 120
        },
        {
          "note": 67,
          "channel": 0,
          "velocity": 81,
          "startTick": 7877,
          "endTick": 8189,
          "durationTicks": 312,
          "startSec": 8.205128205128204,
          "endSec": 8.53025641025641,
          "durationSec": 0.3251282051282051,
          "trackIdx": 0,
          "trackName": "Spotify 20s Capture",
          "bpm": 120
        },
        {
          "note": 65,
          "channel": 0,
          "velocity": 81,
          "startTick": 8369,
          "endTick": 8681,
          "durationTicks": 312,
          "startSec": 8.717948717948717,
          "endSec": 9.043076923076923,
          "durationSec": 0.3251282051282051,
          "trackIdx": 0,
          "trackName": "Spotify 20s Capture",
          "bpm": 120
        },
        {
          "note": 71,
          "channel": 0,
          "velocity": 81,
          "startTick": 8862,
          "endTick": 9174,
          "durationTicks": 312,
          "startSec": 9.23076923076923,
          "endSec": 9.555897435897435,
          "durationSec": 0.3251282051282051,
          "trackIdx": 0,
          "trackName": "Spotify 20s Capture",
          "bpm": 120
        },
        {
          "note": 81,
          "channel": 0,
          "velocity": 81,
          "startTick": 9354,
          "endTick": 9666,
          "durationTicks": 312,
          "startSec": 9.743589743589743,
          "endSec": 10.068717948717948,
          "durationSec": 0.3251282051282051,
          "trackIdx": 0,
          "trackName": "Spotify 20s Capture",
          "bpm": 120
        },
        {
          "note": 60,
          "channel": 0,
          "velocity": 95,
          "startTick": 9846,
          "endTick": 10158,
          "durationTicks": 312,
          "startSec": 10.256410256410255,
          "endSec": 10.581538461538461,
          "durationSec": 0.3251282051282051,
          "trackIdx": 0,
          "trackName": "Spotify 20s Capture",
          "bpm": 120
        },
        {
          "note": 71,
          "channel": 0,
          "velocity": 81,
          "startTick": 10338,
          "endTick": 10651,
          "durationTicks": 313,
          "startSec": 10.769230769230768,
          "endSec": 11.094358974358974,
          "durationSec": 0.3251282051282051,
          "trackIdx": 0,
          "trackName": "Spotify 20s Capture",
          "bpm": 120
        },
        {
          "note": 62,
          "channel": 0,
          "velocity": 81,
          "startTick": 10831,
          "endTick": 11143,
          "durationTicks": 312,
          "startSec": 11.282051282051281,
          "endSec": 11.607179487179486,
          "durationSec": 0.3251282051282051,
          "trackIdx": 0,
          "trackName": "Spotify 20s Capture",
          "bpm": 120
        },
        {
          "note": 67,
          "channel": 0,
          "velocity": 81,
          "startTick": 11323,
          "endTick": 11635,
          "durationTicks": 312,
          "startSec": 11.794871794871794,
          "endSec": 12.12,
          "durationSec": 0.3251282051282051,
          "trackIdx": 0,
          "trackName": "Spotify 20s Capture",
          "bpm": 120
        },
        {
          "note": 73,
          "channel": 0,
          "velocity": 81,
          "startTick": 11815,
          "endTick": 12128,
          "durationTicks": 313,
          "startSec": 12.307692307692307,
          "endSec": 12.632820512820512,
          "durationSec": 0.3251282051282051,
          "trackIdx": 0,
          "trackName": "Spotify 20s Capture",
          "bpm": 120
        },
        {
          "note": 82,
          "channel": 0,
          "velocity": 95,
          "startTick": 12308,
          "endTick": 12620,
          "durationTicks": 312,
          "startSec": 12.82051282051282,
          "endSec": 13.145641025641025,
          "durationSec": 0.3251282051282051,
          "trackIdx": 0,
          "trackName": "Spotify 20s Capture",
          "bpm": 120
        },
        {
          "note": 62,
          "channel": 0,
          "velocity": 81,
          "startTick": 12800,
          "endTick": 13112,
          "durationTicks": 312,
          "startSec": 13.333333333333332,
          "endSec": 13.658461538461538,
          "durationSec": 0.3251282051282051,
          "trackIdx": 0,
          "trackName": "Spotify 20s Capture",
          "bpm": 120
        },
        {
          "note": 70,
          "channel": 0,
          "velocity": 81,
          "startTick": 13292,
          "endTick": 13604,
          "durationTicks": 312,
          "startSec": 13.846153846153845,
          "endSec": 14.17128205128205,
          "durationSec": 0.3251282051282051,
          "trackIdx": 0,
          "trackName": "Spotify 20s Capture",
          "bpm": 120
        },
        {
          "note": 74,
          "channel": 0,
          "velocity": 81,
          "startTick": 13785,
          "endTick": 14097,
          "durationTicks": 312,
          "startSec": 14.358974358974358,
          "endSec": 14.684102564102563,
          "durationSec": 0.3251282051282051,
          "trackIdx": 0,
          "trackName": "Spotify 20s Capture",
          "bpm": 120
        },
        {
          "note": 78,
          "channel": 0,
          "velocity": 81,
          "startTick": 14277,
          "endTick": 14589,
          "durationTicks": 312,
          "startSec": 14.87179487179487,
          "endSec": 15.196923076923076,
          "durationSec": 0.3251282051282051,
          "trackIdx": 0,
          "trackName": "Spotify 20s Capture",
          "bpm": 120
        },
        {
          "note": 56,
          "channel": 0,
          "velocity": 95,
          "startTick": 14769,
          "endTick": 15081,
          "durationTicks": 312,
          "startSec": 15.384615384615383,
          "endSec": 15.709743589743589,
          "durationSec": 0.3251282051282051,
          "trackIdx": 0,
          "trackName": "Spotify 20s Capture",
          "bpm": 120
        },
        {
          "note": 63,
          "channel": 0,
          "velocity": 81,
          "startTick": 15262,
          "endTick": 15574,
          "durationTicks": 312,
          "startSec": 15.897435897435896,
          "endSec": 16.2225641025641,
          "durationSec": 0.3251282051282051,
          "trackIdx": 0,
          "trackName": "Spotify 20s Capture",
          "bpm": 120
        },
        {
          "note": 71,
          "channel": 0,
          "velocity": 81,
          "startTick": 15754,
          "endTick": 16066,
          "durationTicks": 312,
          "startSec": 16.41025641025641,
          "endSec": 16.735384615384614,
          "durationSec": 0.3251282051282051,
          "trackIdx": 0,
          "trackName": "Spotify 20s Capture",
          "bpm": 120
        },
        {
          "note": 72,
          "channel": 0,
          "velocity": 81,
          "startTick": 16246,
          "endTick": 16558,
          "durationTicks": 312,
          "startSec": 16.92307692307692,
          "endSec": 17.248205128205125,
          "durationSec": 0.3251282051282051,
          "trackIdx": 0,
          "trackName": "Spotify 20s Capture",
          "bpm": 120
        },
        {
          "note": 57,
          "channel": 0,
          "velocity": 81,
          "startTick": 16738,
          "endTick": 17051,
          "durationTicks": 313,
          "startSec": 17.435897435897434,
          "endSec": 17.76102564102564,
          "durationSec": 0.3251282051282051,
          "trackIdx": 0,
          "trackName": "Spotify 20s Capture",
          "bpm": 120
        },
        {
          "note": 57,
          "channel": 0,
          "velocity": 95,
          "startTick": 17231,
          "endTick": 17543,
          "durationTicks": 312,
          "startSec": 17.94871794871795,
          "endSec": 18.273846153846154,
          "durationSec": 0.3251282051282051,
          "trackIdx": 0,
          "trackName": "Spotify 20s Capture",
          "bpm": 120
        },
        {
          "note": 61,
          "channel": 0,
          "velocity": 81,
          "startTick": 17723,
          "endTick": 18035,
          "durationTicks": 312,
          "startSec": 18.46153846153846,
          "endSec": 18.786666666666665,
          "durationSec": 0.3251282051282051,
          "trackIdx": 0,
          "trackName": "Spotify 20s Capture",
          "bpm": 120
        },
        {
          "note": 79,
          "channel": 0,
          "velocity": 81,
          "startTick": 18215,
          "endTick": 18528,
          "durationTicks": 313,
          "startSec": 18.97435897435897,
          "endSec": 19.299487179487176,
          "durationSec": 0.3251282051282051,
          "trackIdx": 0,
          "trackName": "Spotify 20s Capture",
          "bpm": 120
        },
        {
          "note": 59,
          "channel": 0,
          "velocity": 81,
          "startTick": 18708,
          "endTick": 19020,
          "durationTicks": 312,
          "startSec": 19.487179487179485,
          "endSec": 19.81230769230769,
          "durationSec": 0.3251282051282051,
          "trackIdx": 0,
          "trackName": "Spotify 20s Capture",
          "bpm": 120
        }
      ],
      "minNote": 56,
      "maxNote": 83,
      "avgVelocity": 83.87179487179488
    }
  ],
  "notes": [
    {
      "note": 74,
      "channel": 0,
      "velocity": 95,
      "startTick": 0,
      "endTick": 312,
      "durationTicks": 312,
      "startSec": 0,
      "endSec": 0.3251282051282051,
      "durationSec": 0.3251282051282051,
      "trackIdx": 0,
      "trackName": "Spotify 20s Capture",
      "bpm": 120
    },
    {
      "note": 83,
      "channel": 0,
      "velocity": 81,
      "startTick": 492,
      "endTick": 804,
      "durationTicks": 312,
      "startSec": 0.5128205128205128,
      "endSec": 0.837948717948718,
      "durationSec": 0.3251282051282051,
      "trackIdx": 0,
      "trackName": "Spotify 20s Capture",
      "bpm": 120
    },
    {
      "note": 67,
      "channel": 0,
      "velocity": 81,
      "startTick": 985,
      "endTick": 1297,
      "durationTicks": 312,
      "startSec": 1.0256410256410255,
      "endSec": 1.3507692307692307,
      "durationSec": 0.3251282051282051,
      "trackIdx": 0,
      "trackName": "Spotify 20s Capture",
      "bpm": 120
    },
    {
      "note": 71,
      "channel": 0,
      "velocity": 81,
      "startTick": 1477,
      "endTick": 1789,
      "durationTicks": 312,
      "startSec": 1.5384615384615383,
      "endSec": 1.8635897435897435,
      "durationSec": 0.3251282051282051,
      "trackIdx": 0,
      "trackName": "Spotify 20s Capture",
      "bpm": 120
    },
    {
      "note": 77,
      "channel": 0,
      "velocity": 81,
      "startTick": 1969,
      "endTick": 2281,
      "durationTicks": 312,
      "startSec": 2.051282051282051,
      "endSec": 2.376410256410256,
      "durationSec": 0.3251282051282051,
      "trackIdx": 0,
      "trackName": "Spotify 20s Capture",
      "bpm": 120
    },
    {
      "note": 79,
      "channel": 0,
      "velocity": 95,
      "startTick": 2462,
      "endTick": 2774,
      "durationTicks": 312,
      "startSec": 2.564102564102564,
      "endSec": 2.889230769230769,
      "durationSec": 0.3251282051282051,
      "trackIdx": 0,
      "trackName": "Spotify 20s Capture",
      "bpm": 120
    },
    {
      "note": 56,
      "channel": 0,
      "velocity": 81,
      "startTick": 2954,
      "endTick": 3266,
      "durationTicks": 312,
      "startSec": 3.0769230769230766,
      "endSec": 3.4020512820512816,
      "durationSec": 0.3251282051282051,
      "trackIdx": 0,
      "trackName": "Spotify 20s Capture",
      "bpm": 120
    },
    {
      "note": 79,
      "channel": 0,
      "velocity": 81,
      "startTick": 3446,
      "endTick": 3758,
      "durationTicks": 312,
      "startSec": 3.5897435897435894,
      "endSec": 3.9148717948717944,
      "durationSec": 0.3251282051282051,
      "trackIdx": 0,
      "trackName": "Spotify 20s Capture",
      "bpm": 120
    },
    {
      "note": 75,
      "channel": 0,
      "velocity": 81,
      "startTick": 3938,
      "endTick": 4251,
      "durationTicks": 313,
      "startSec": 4.102564102564102,
      "endSec": 4.427692307692308,
      "durationSec": 0.3251282051282051,
      "trackIdx": 0,
      "trackName": "Spotify 20s Capture",
      "bpm": 120
    },
    {
      "note": 73,
      "channel": 0,
      "velocity": 81,
      "startTick": 4431,
      "endTick": 4743,
      "durationTicks": 312,
      "startSec": 4.615384615384615,
      "endSec": 4.94051282051282,
      "durationSec": 0.3251282051282051,
      "trackIdx": 0,
      "trackName": "Spotify 20s Capture",
      "bpm": 120
    },
    {
      "note": 78,
      "channel": 0,
      "velocity": 95,
      "startTick": 4923,
      "endTick": 5235,
      "durationTicks": 312,
      "startSec": 5.128205128205128,
      "endSec": 5.453333333333333,
      "durationSec": 0.3251282051282051,
      "trackIdx": 0,
      "trackName": "Spotify 20s Capture",
      "bpm": 120
    },
    {
      "note": 76,
      "channel": 0,
      "velocity": 81,
      "startTick": 5415,
      "endTick": 5728,
      "durationTicks": 313,
      "startSec": 5.6410256410256405,
      "endSec": 5.966153846153846,
      "durationSec": 0.3251282051282051,
      "trackIdx": 0,
      "trackName": "Spotify 20s Capture",
      "bpm": 120
    },
    {
      "note": 61,
      "channel": 0,
      "velocity": 81,
      "startTick": 5908,
      "endTick": 6220,
      "durationTicks": 312,
      "startSec": 6.153846153846153,
      "endSec": 6.478974358974359,
      "durationSec": 0.3251282051282051,
      "trackIdx": 0,
      "trackName": "Spotify 20s Capture",
      "bpm": 120
    },
    {
      "note": 78,
      "channel": 0,
      "velocity": 81,
      "startTick": 6400,
      "endTick": 6712,
      "durationTicks": 312,
      "startSec": 6.666666666666666,
      "endSec": 6.9917948717948715,
      "durationSec": 0.3251282051282051,
      "trackIdx": 0,
      "trackName": "Spotify 20s Capture",
      "bpm": 120
    },
    {
      "note": 74,
      "channel": 0,
      "velocity": 81,
      "startTick": 6892,
      "endTick": 7204,
      "durationTicks": 312,
      "startSec": 7.179487179487179,
      "endSec": 7.504615384615384,
      "durationSec": 0.3251282051282051,
      "trackIdx": 0,
      "trackName": "Spotify 20s Capture",
      "bpm": 120
    },
    {
      "note": 63,
      "channel": 0,
      "velocity": 95,
      "startTick": 7385,
      "endTick": 7697,
      "durationTicks": 312,
      "startSec": 7.692307692307692,
      "endSec": 8.017435897435897,
      "durationSec": 0.3251282051282051,
      "trackIdx": 0,
      "trackName": "Spotify 20s Capture",
      "bpm": 120
    },
    {
      "note": 67,
      "channel": 0,
      "velocity": 81,
      "startTick": 7877,
      "endTick": 8189,
      "durationTicks": 312,
      "startSec": 8.205128205128204,
      "endSec": 8.53025641025641,
      "durationSec": 0.3251282051282051,
      "trackIdx": 0,
      "trackName": "Spotify 20s Capture",
      "bpm": 120
    },
    {
      "note": 65,
      "channel": 0,
      "velocity": 81,
      "startTick": 8369,
      "endTick": 8681,
      "durationTicks": 312,
      "startSec": 8.717948717948717,
      "endSec": 9.043076923076923,
      "durationSec": 0.3251282051282051,
      "trackIdx": 0,
      "trackName": "Spotify 20s Capture",
      "bpm": 120
    },
    {
      "note": 71,
      "channel": 0,
      "velocity": 81,
      "startTick": 8862,
      "endTick": 9174,
      "durationTicks": 312,
      "startSec": 9.23076923076923,
      "endSec": 9.555897435897435,
      "durationSec": 0.3251282051282051,
      "trackIdx": 0,
      "trackName": "Spotify 20s Capture",
      "bpm": 120
    },
    {
      "note": 81,
      "channel": 0,
      "velocity": 81,
      "startTick": 9354,
      "endTick": 9666,
      "durationTicks": 312,
      "startSec": 9.743589743589743,
      "endSec": 10.068717948717948,
      "durationSec": 0.3251282051282051,
      "trackIdx": 0,
      "trackName": "Spotify 20s Capture",
      "bpm": 120
    },
    {
      "note": 60,
      "channel": 0,
      "velocity": 95,
      "startTick": 9846,
      "endTick": 10158,
      "durationTicks": 312,
      "startSec": 10.256410256410255,
      "endSec": 10.581538461538461,
      "durationSec": 0.3251282051282051,
      "trackIdx": 0,
      "trackName": "Spotify 20s Capture",
      "bpm": 120
    },
    {
      "note": 71,
      "channel": 0,
      "velocity": 81,
      "startTick": 10338,
      "endTick": 10651,
      "durationTicks": 313,
      "startSec": 10.769230769230768,
      "endSec": 11.094358974358974,
      "durationSec": 0.3251282051282051,
      "trackIdx": 0,
      "trackName": "Spotify 20s Capture",
      "bpm": 120
    },
    {
      "note": 62,
      "channel": 0,
      "velocity": 81,
      "startTick": 10831,
      "endTick": 11143,
      "durationTicks": 312,
      "startSec": 11.282051282051281,
      "endSec": 11.607179487179486,
      "durationSec": 0.3251282051282051,
      "trackIdx": 0,
      "trackName": "Spotify 20s Capture",
      "bpm": 120
    },
    {
      "note": 67,
      "channel": 0,
      "velocity": 81,
      "startTick": 11323,
      "endTick": 11635,
      "durationTicks": 312,
      "startSec": 11.794871794871794,
      "endSec": 12.12,
      "durationSec": 0.3251282051282051,
      "trackIdx": 0,
      "trackName": "Spotify 20s Capture",
      "bpm": 120
    },
    {
      "note": 73,
      "channel": 0,
      "velocity": 81,
      "startTick": 11815,
      "endTick": 12128,
      "durationTicks": 313,
      "startSec": 12.307692307692307,
      "endSec": 12.632820512820512,
      "durationSec": 0.3251282051282051,
      "trackIdx": 0,
      "trackName": "Spotify 20s Capture",
      "bpm": 120
    },
    {
      "note": 82,
      "channel": 0,
      "velocity": 95,
      "startTick": 12308,
      "endTick": 12620,
      "durationTicks": 312,
      "startSec": 12.82051282051282,
      "endSec": 13.145641025641025,
      "durationSec": 0.3251282051282051,
      "trackIdx": 0,
      "trackName": "Spotify 20s Capture",
      "bpm": 120
    },
    {
      "note": 62,
      "channel": 0,
      "velocity": 81,
      "startTick": 12800,
      "endTick": 13112,
      "durationTicks": 312,
      "startSec": 13.333333333333332,
      "endSec": 13.658461538461538,
      "durationSec": 0.3251282051282051,
      "trackIdx": 0,
      "trackName": "Spotify 20s Capture",
      "bpm": 120
    },
    {
      "note": 70,
      "channel": 0,
      "velocity": 81,
      "startTick": 13292,
      "endTick": 13604,
      "durationTicks": 312,
      "startSec": 13.846153846153845,
      "endSec": 14.17128205128205,
      "durationSec": 0.3251282051282051,
      "trackIdx": 0,
      "trackName": "Spotify 20s Capture",
      "bpm": 120
    },
    {
      "note": 74,
      "channel": 0,
      "velocity": 81,
      "startTick": 13785,
      "endTick": 14097,
      "durationTicks": 312,
      "startSec": 14.358974358974358,
      "endSec": 14.684102564102563,
      "durationSec": 0.3251282051282051,
      "trackIdx": 0,
      "trackName": "Spotify 20s Capture",
      "bpm": 120
    },
    {
      "note": 78,
      "channel": 0,
      "velocity": 81,
      "startTick": 14277,
      "endTick": 14589,
      "durationTicks": 312,
      "startSec": 14.87179487179487,
      "endSec": 15.196923076923076,
      "durationSec": 0.3251282051282051,
      "trackIdx": 0,
      "trackName": "Spotify 20s Capture",
      "bpm": 120
    },
    {
      "note": 56,
      "channel": 0,
      "velocity": 95,
      "startTick": 14769,
      "endTick": 15081,
      "durationTicks": 312,
      "startSec": 15.384615384615383,
      "endSec": 15.709743589743589,
      "durationSec": 0.3251282051282051,
      "trackIdx": 0,
      "trackName": "Spotify 20s Capture",
      "bpm": 120
    },
    {
      "note": 63,
      "channel": 0,
      "velocity": 81,
      "startTick": 15262,
      "endTick": 15574,
      "durationTicks": 312,
      "startSec": 15.897435897435896,
      "endSec": 16.2225641025641,
      "durationSec": 0.3251282051282051,
      "trackIdx": 0,
      "trackName": "Spotify 20s Capture",
      "bpm": 120
    },
    {
      "note": 71,
      "channel": 0,
      "velocity": 81,
      "startTick": 15754,
      "endTick": 16066,
      "durationTicks": 312,
      "startSec": 16.41025641025641,
      "endSec": 16.735384615384614,
      "durationSec": 0.3251282051282051,
      "trackIdx": 0,
      "trackName": "Spotify 20s Capture",
      "bpm": 120
    },
    {
      "note": 72,
      "channel": 0,
      "velocity": 81,
      "startTick": 16246,
      "endTick": 16558,
      "durationTicks": 312,
      "startSec": 16.92307692307692,
      "endSec": 17.248205128205125,
      "durationSec": 0.3251282051282051,
      "trackIdx": 0,
      "trackName": "Spotify 20s Capture",
      "bpm": 120
    },
    {
      "note": 57,
      "channel": 0,
      "velocity": 81,
      "startTick": 16738,
      "endTick": 17051,
      "durationTicks": 313,
      "startSec": 17.435897435897434,
      "endSec": 17.76102564102564,
      "durationSec": 0.3251282051282051,
      "trackIdx": 0,
      "trackName": "Spotify 20s Capture",
      "bpm": 120
    },
    {
      "note": 57,
      "channel": 0,
      "velocity": 95,
      "startTick": 17231,
      "endTick": 17543,
      "durationTicks": 312,
      "startSec": 17.94871794871795,
      "endSec": 18.273846153846154,
      "durationSec": 0.3251282051282051,
      "trackIdx": 0,
      "trackName": "Spotify 20s Capture",
      "bpm": 120
    },
    {
      "note": 61,
      "channel": 0,
      "velocity": 81,
      "startTick": 17723,
      "endTick": 18035,
      "durationTicks": 312,
      "startSec": 18.46153846153846,
      "endSec": 18.786666666666665,
      "durationSec": 0.3251282051282051,
      "trackIdx": 0,
      "trackName": "Spotify 20s Capture",
      "bpm": 120
    },
    {
      "note": 79,
      "channel": 0,
      "velocity": 81,
      "startTick": 18215,
      "endTick": 18528,
      "durationTicks": 313,
      "startSec": 18.97435897435897,
      "endSec": 19.299487179487176,
      "durationSec": 0.3251282051282051,
      "trackIdx": 0,
      "trackName": "Spotify 20s Capture",
      "bpm": 120
    },
    {
      "note": 59,
      "channel": 0,
      "velocity": 81,
      "startTick": 18708,
      "endTick": 19020,
      "durationTicks": 312,
      "startSec": 19.487179487179485,
      "endSec": 19.81230769230769,
      "durationSec": 0.3251282051282051,
      "trackIdx": 0,
      "trackName": "Spotify 20s Capture",
      "bpm": 120
    }
  ],
  "bpm": 120,
  "totalNotes": 39,
  "maxTick": 19020,
  "uniquePitches": [
    56,
    57,
    59,
    60,
    61,
    62,
    63,
    65,
    67,
    70,
    71,
    72,
    73,
    74,
    75,
    76,
    77,
    78,
    79,
    81,
    82,
    83
  ],
  "duration": 20,
  "sourceType": "spotify-auto",
  "captureSeconds": 20,
  "spotifyTrack": {
    "id": "5xVcnhVL0AwcOgbpuxTu6W",
    "uri": "spotify:track:5xVcnhVL0AwcOgbpuxTu6W",
    "name": "Widerstehe doch der Sünde, BWV 54 (Transcr. by Víkingur Ólafsson)",
    "artists": "Johann Sebastian Bach, Víkingur Ólafsson",
    "album": "Johann Sebastian Bach",
    "duration_ms": 266213,
    "image": "https://i.scdn.co/image/ab67616d0000b273369f6761d1cccba9a34f05cf",
    "popularity": 50
  }
}